<svg width="47" height="45" viewBox="0 0 47 45" fill="none" xmlns="http://www.w3.org/2000/svg">
<path opacity="0.32" d="M33.7436 40.4615H12.2179C11.8333 40.4615 11.5128 40.141 11.5128 39.7564C11.5128 39.3718 11.8333 39.0513 12.2179 39.0513H33.7436C34.1282 39.0513 34.4487 39.3718 34.4487 39.7564C34.4487 40.141 34.1282 40.4615 33.7436 40.4615Z" fill="#1C1C1C"/>
<path d="M45.5385 26.5513H0.410248V2.39744C0.410248 1.28205 1.30768 0.384613 2.42307 0.384613H43.4615C44.6026 0.384613 45.5385 1.32051 45.5385 2.46154V26.5513Z" fill="#383939"/>
<path d="M1.17947 24.6282V2.32052C1.17947 1.67949 1.69229 1.16667 2.33332 1.16667H43.6154C44.2564 1.16667 44.7692 1.67949 44.7692 2.32052V24.6282C44.7692 25.2692 44.2564 25.7821 43.6154 25.7821H2.33332C1.70511 25.7821 1.17947 25.2564 1.17947 24.6282Z" fill="#3A3A3A"/>
<path d="M45.5385 26.5513H0.410248V2.39744C0.410248 1.28205 1.30768 0.384613 2.42307 0.384613H43.4615C44.6026 0.384613 45.5385 1.32051 45.5385 2.46154V26.5513Z" stroke="#383939" stroke-width="0.769231" stroke-miterlimit="10" stroke-linecap="round" stroke-linejoin="round"/>
<path d="M42.9724 23.977L42.9724 2.95134L2.97241 2.95134L2.97241 23.977L42.9724 23.977Z" fill="#4F4F4F"/>
<path d="M43.4487 32.7051H2.43589C1.3205 32.7051 0.410248 31.7949 0.410248 30.6795V26.5513H45.5385V30.6154C45.5385 31.7564 44.6026 32.7051 43.4487 32.7051Z" fill="#D4E8DC"/>
<path d="M2.43591 31.6795C1.88463 31.6795 1.43591 31.2308 1.43591 30.6795V26.9744H44.5128V30.6154C44.5128 31.2051 44.0385 31.6795 43.4487 31.6795H2.43591Z" fill="#EBF2EE"/>
<path d="M43.4487 32.7051H2.43589C1.3205 32.7051 0.410248 31.7949 0.410248 30.6795V26.5513H45.5385V30.6154C45.5385 31.7564 44.6026 32.7051 43.4487 32.7051Z" stroke="#383939" stroke-width="0.769231" stroke-miterlimit="10" stroke-linecap="round" stroke-linejoin="round"/>
<path d="M29.7692 37.3205H16.1795L18.1923 32.7051H27.7564L29.7692 37.3205Z" fill="#CAD8D0"/>
<path d="M28.6538 34.7564L27.7564 32.7051H18.1923L17.2949 34.7564H28.6538Z" fill="#A1ADA6"/>
<path d="M29.7692 37.3205H16.1795L18.1923 32.7051H27.7564L29.7692 37.3205Z" stroke="#383939" stroke-width="0.769231" stroke-miterlimit="10" stroke-linecap="round" stroke-linejoin="round"/>
<path d="M32.3333 39.3718H13.6154L13.8077 38.6923C14.0385 37.8846 14.7949 37.3205 15.6667 37.3205H30.2821C31.1538 37.3205 31.9231 37.8846 32.141 38.6923L32.3333 39.3718Z" fill="#DAEDE2"/>
<path d="M32.3333 39.3718H13.6154L13.8077 38.6923C14.0385 37.8846 14.7949 37.3205 15.6667 37.3205H30.2821C31.1538 37.3205 31.9231 37.8846 32.141 38.6923L32.3333 39.3718Z" stroke="#383939" stroke-width="0.769231" stroke-miterlimit="10" stroke-linecap="round" stroke-linejoin="round"/>
<path d="M6.29486 44.6154H38.8205C39.2949 44.6154 39.6795 44.2308 39.6795 43.7564C39.6795 43.282 39.2949 42.8974 38.8205 42.8974H6.29486C5.82051 42.8974 5.43589 43.282 5.43589 43.7564C5.42307 44.2308 5.80769 44.6154 6.29486 44.6154Z" fill="#DAEDE2"/>
<path d="M6.29486 44.6154H38.8205C39.2949 44.6154 39.6795 44.2308 39.6795 43.7564C39.6795 43.282 39.2949 42.8974 38.8205 42.8974H6.29486C5.82051 42.8974 5.43589 43.282 5.43589 43.7564C5.42307 44.2308 5.80769 44.6154 6.29486 44.6154Z" stroke="#383939" stroke-width="0.769231" stroke-miterlimit="10" stroke-linecap="round" stroke-linejoin="round"/>
<path d="M16.2692 42.8846H31.9103V42.3718C31.9103 41.9487 31.5641 41.6026 31.141 41.6026H17.0385C16.6154 41.6026 16.2692 41.9487 16.2692 42.3718V42.8846Z" fill="#383939"/>
<path d="M13.1667 42.8846H15.8846V42.3718C15.8846 41.9487 15.5384 41.6026 15.1154 41.6026H13.9359C13.5128 41.6026 13.1667 41.9487 13.1667 42.3718V42.8846Z" fill="#383939"/>
<path d="M10 42.8846H12.718V42.3718C12.718 41.9487 12.3718 41.6026 11.9487 41.6026H10.7692C10.3462 41.6026 10 41.9487 10 42.3718V42.8846Z" fill="#383939"/>
<path d="M35.5385 42.8846H38.2564V42.3718C38.2564 41.9487 37.9102 41.6026 37.4872 41.6026H36.3077C35.8846 41.6026 35.5385 41.9487 35.5385 42.3718V42.8846Z" fill="#383939"/>
<path d="M32.3846 42.8846H35.1026V42.3718C35.1026 41.9487 34.7564 41.6026 34.3333 41.6026H33.1538C32.7308 41.6026 32.3846 41.9487 32.3846 42.3718V42.8846Z" fill="#383939"/>
<path d="M6.84616 42.8846H9.56411V42.3718C9.56411 41.9487 9.21796 41.6026 8.79488 41.6026H7.61539C7.19231 41.6026 6.84616 41.9487 6.84616 42.3718V42.8846Z" fill="#383939"/>
<path d="M24.7949 29.3077C24.2051 29.3077 23.7179 28.8718 23.641 28.2949C23.6282 28.2949 23.6282 28.2949 23.6154 28.2949C22.8846 28.2949 22.2949 28.8846 22.2949 29.6154C22.2949 30.3461 22.8846 30.9359 23.6154 30.9359C24.3461 30.9359 24.9359 30.3461 24.9359 29.6154C24.9359 29.5 24.9231 29.3974 24.8974 29.2949C24.859 29.3077 24.8333 29.3077 24.7949 29.3077Z" fill="#383939"/>
<path opacity="0.16" d="M7.51282 23.9872H12.4103L23.1282 2.96153H18.2308L7.51282 23.9872Z" fill="#C2D3C9"/>
<path opacity="0.16" d="M16.3718 23.9872L27.0897 2.96153H25.2564L14.5385 23.9872H16.3718Z" fill="#C2D3C9"/>
<g opacity="0.38">
<path opacity="0.38" d="M25.9615 16.6667H20.8077C20.7051 16.6667 20.6154 16.5769 20.6154 16.4744C20.6154 16.3718 20.7051 16.282 20.8077 16.282H25.9615C26.0641 16.282 26.1539 16.3718 26.1539 16.4744C26.1539 16.5769 26.0641 16.6667 25.9615 16.6667Z" fill="#C2D3C9"/>
</g>
</svg>
