<svg width="68" height="68" viewBox="0 0 68 68" fill="none" xmlns="http://www.w3.org/2000/svg">
<g clip-path="url(#clip0)">
<path d="M67 33.5C67 52.0015 52.0015 67 33.5 67C14.9985 67 0 52.0015 0 33.5C0 14.9985 14.9985 0 33.5 0C52.0015 0 67 14.9985 67 33.5Z" fill="#333333"/>
<path opacity="0.4" d="M53.6046 45.0561L44.302 50.9606C43.8262 51.2626 43.2905 51.456 42.7324 51.527C42.1743 51.5981 41.6076 51.5451 41.0721 51.3719L30.8751 48.0728C30.3362 47.8985 29.7657 47.8459 29.2043 47.919C28.6429 47.992 28.1045 48.1889 27.6273 48.4954L20.1619 53.2919C19.9329 53.4376 19.6733 53.5275 19.4037 53.5546C19.1341 53.5816 18.8619 53.5451 18.6088 53.4478C18.3557 53.3506 18.1286 53.1953 17.9455 52.9943C17.7624 52.7933 17.6284 52.5521 17.5541 52.2899L11.1109 29.5548C11.0076 29.1902 11.0243 28.8018 11.1587 28.4476C11.293 28.0934 11.5377 27.7926 11.8561 27.59L21.2577 21.6095C21.779 21.2779 22.3662 21.0656 22.9779 20.9874C23.5896 20.9092 24.2109 20.9671 24.7979 21.157L34.6695 24.3508C35.2587 24.5414 35.8823 24.599 36.4961 24.5196C37.1099 24.4402 37.6988 24.2256 38.2209 23.8912L45.2902 19.3632C45.5192 19.2165 45.7791 19.1257 46.0491 19.098C46.3191 19.0702 46.5918 19.1063 46.8455 19.2033C47.0992 19.3003 47.3269 19.4556 47.5105 19.6568C47.6941 19.8581 47.8284 20.0996 47.9029 20.3623L54.3451 43.0943C54.4482 43.458 54.4317 43.8454 54.2983 44.1989C54.1649 44.5524 53.9215 44.8531 53.6046 45.0561V45.0561Z" fill="#CCCDCF"/>
<path d="M53.9678 42.6433L46.0241 47.7312C45.502 48.0656 44.9132 48.2801 44.2994 48.3595C43.6856 48.439 43.0619 48.3813 42.4728 48.1907L32.6005 44.9969C32.0135 44.807 31.3922 44.7491 30.7805 44.8273C30.1688 44.9055 29.5816 45.1178 29.0604 45.4494L20.5248 50.8791C20.2958 51.0248 20.0362 51.1147 19.7666 51.1417C19.497 51.1688 19.2249 51.1323 18.9718 51.035C18.7187 50.9378 18.4915 50.7825 18.3085 50.5815C18.1254 50.3805 17.9914 50.1393 17.917 49.8771L11.4739 27.1419C11.3705 26.7774 11.3873 26.389 11.5216 26.0348C11.6559 25.6806 11.9006 25.3797 12.219 25.1772L21.6202 19.1964C22.1414 18.8649 22.7286 18.6525 23.3403 18.5743C23.952 18.4961 24.5733 18.554 25.1604 18.7439L35.0326 21.9378C35.6217 22.1284 36.2454 22.1861 36.8592 22.1066C37.473 22.0272 38.0618 21.8126 38.5839 21.4782L45.6533 16.9502C45.8823 16.8036 46.1421 16.7128 46.4121 16.685C46.6821 16.6572 46.9548 16.6933 47.2086 16.7903C47.4623 16.8874 47.69 17.0427 47.8735 17.2439C48.0571 17.4451 48.1915 17.6867 48.2659 17.9494L54.7082 40.6812C54.8113 41.0449 54.7949 41.4324 54.6615 41.7859C54.5281 42.1395 54.2848 42.4402 53.9678 42.6433V42.6433Z" fill="white"/>
<path d="M31.6529 42.427L30.1758 38.2323L23.1956 40.6375L21.0129 34.2723L15.3276 35.4112L19.3137 49.4759C19.3313 49.5376 19.3685 49.5918 19.4195 49.6303C19.4705 49.6688 19.5326 49.6895 19.5964 49.6892C19.6505 49.689 19.7033 49.6729 19.7484 49.6429L27.8634 44.4808C27.8281 44.4393 31.6529 42.427 31.6529 42.427Z" fill="#EAF4F7"/>
<path d="M53.9678 42.6433L46.0241 47.7312C45.502 48.0656 44.9132 48.2801 44.2994 48.3595C43.6856 48.439 43.0619 48.3813 42.4728 48.1907L32.6005 44.9969C32.0135 44.807 31.3922 44.7491 30.7805 44.8273C30.1688 44.9055 29.5816 45.1178 29.0604 45.4494L20.5248 50.8791C20.2958 51.0248 20.0362 51.1147 19.7666 51.1417C19.497 51.1688 19.2249 51.1323 18.9718 51.035C18.7187 50.9378 18.4915 50.7825 18.3085 50.5815C18.1254 50.3805 17.9914 50.1393 17.917 49.8771L11.4739 27.1419C11.3705 26.7774 11.3873 26.389 11.5216 26.0348C11.6559 25.6806 11.9006 25.3797 12.219 25.1772L21.6202 19.1964C22.1414 18.8649 22.7286 18.6525 23.3403 18.5743C23.952 18.4961 24.5733 18.554 25.1604 18.7439L35.0326 21.9378C35.6217 22.1284 36.2454 22.1861 36.8592 22.1066C37.473 22.0272 38.0618 21.8126 38.5839 21.4782L45.6533 16.9502C45.8823 16.8036 46.1421 16.7128 46.4121 16.685C46.6821 16.6572 46.9548 16.6933 47.2086 16.7903C47.4623 16.8874 47.69 17.0427 47.8735 17.2439C48.0571 17.4451 48.1915 17.6867 48.2659 17.9494L54.7082 40.6812C54.8113 41.0449 54.7949 41.4324 54.6615 41.7859C54.5281 42.1395 54.2848 42.4402 53.9678 42.6433V42.6433Z" stroke="#363A5A" stroke-width="0.408" stroke-miterlimit="10"/>
<path d="M24.3262 39.8191C24.3262 39.8191 24.4472 39.7873 24.6513 39.7274" stroke="#363A5A" stroke-width="0.272" stroke-linecap="round" stroke-linejoin="round"/>
<path d="M25.6334 39.4109C27.068 38.9086 29.1732 37.9868 29.1985 36.8966C29.2322 35.4482 22.2579 28.2017 26.0074 27.7636C38.5255 26.3012 32.9166 36.7804 38.6258 36.5463C41.0377 36.4473 36.5773 33.1096 43.4686 30.697C44.4902 30.3393 43.9827 27.7243 43.64 26.3571" stroke="#363A5A" stroke-width="0.272" stroke-linecap="round" stroke-linejoin="round" stroke-dasharray="0.69 1.04"/>
<path d="M43.5074 25.8554C43.4504 25.6502 43.4128 25.529 43.4128 25.529" stroke="#363A5A" stroke-width="0.272" stroke-linecap="round" stroke-linejoin="round"/>
<path opacity="0.22" d="M23.8901 43.2732C25.6883 43.2732 27.146 41.806 27.146 39.9961C27.146 38.1862 25.6883 36.7191 23.8901 36.7191C22.092 36.7191 20.6343 38.1862 20.6343 39.9961C20.6343 41.806 22.092 43.2732 23.8901 43.2732Z" fill="#3DC0CB"/>
<path d="M23.8901 41.8964C24.9329 41.8964 25.7782 41.0456 25.7782 39.9961C25.7782 38.9466 24.9329 38.0958 23.8901 38.0958C22.8474 38.0958 22.0021 38.9466 22.0021 39.9961C22.0021 41.0456 22.8474 41.8964 23.8901 41.8964Z" fill="#3DC0CB"/>
<path d="M23.8901 38.0958C23.6007 38.0956 23.3151 38.1625 23.0555 38.2913C22.7959 38.4201 22.5692 38.6074 22.3931 38.8386C22.7643 38.5847 23.2132 38.4721 23.6593 38.5212C24.1055 38.5703 24.5197 38.7777 24.8276 39.1063C25.1355 39.4349 25.3171 39.8632 25.3397 40.3143C25.3623 40.7654 25.2245 41.2099 24.951 41.5681C25.285 41.3397 25.5375 41.0095 25.6713 40.6261C25.8052 40.2426 25.8134 39.8261 25.6947 39.4376C25.5761 39.0491 25.3368 38.7092 25.012 38.4677C24.6872 38.2262 24.2941 38.0958 23.8903 38.0958H23.8901Z" fill="#64C7CF"/>
<path d="M23.8901 41.8964C24.9329 41.8964 25.7782 41.0456 25.7782 39.9961C25.7782 38.9466 24.9329 38.0958 23.8901 38.0958C22.8474 38.0958 22.0021 38.9466 22.0021 39.9961C22.0021 41.0456 22.8474 41.8964 23.8901 41.8964Z" stroke="#363A5A" stroke-width="0.408" stroke-miterlimit="10"/>
<path d="M24.7505 23.0411L30.1657 24.0743L28.9221 21.8743L24.4402 20.3005C24.181 20.2094 23.9065 20.1707 23.6324 20.1865C23.3583 20.2023 23.09 20.2722 22.8427 20.3924L12.9947 26.4133C12.9418 26.4473 12.9012 26.4974 12.8788 26.5564C12.8564 26.6154 12.8535 26.68 12.8704 26.7408L14.4586 32.3448L18.7885 31.2672L17.9933 28.0568L24.7505 23.0411Z" fill="#87D5F7" stroke="#259AD6" stroke-width="0.272" stroke-linecap="round" stroke-linejoin="round"/>
<path d="M33.3322 36.9192L36.4224 37.7023L37.9163 41.1486L34.5874 40.5994L33.3322 36.9192Z" fill="#FDDCBF" stroke="#ECB072" stroke-width="0.272" stroke-linecap="round" stroke-linejoin="round"/>
<path d="M43.4701 26.5955C40.9597 26.5955 38.9247 25.8627 38.9247 24.9588C38.9247 24.0549 40.9597 23.322 43.4701 23.322C45.9804 23.322 48.0153 24.0549 48.0153 24.9588C48.0153 25.8627 45.9803 26.5955 43.4701 26.5955Z" fill="#EAF4F7"/>
<path d="M44.8964 35.869L50.5666 33.3847L52.8065 40.2533L43.6249 45.5051L41.942 40.7247L45.5322 38.6921L44.8964 35.869Z" fill="#FDDCBF" stroke="#ECB072" stroke-width="0.272" stroke-linecap="round" stroke-linejoin="round"/>
<path d="M50.1623 16.9783C50.1623 13.0479 46.9927 9.88292 43.1521 10.0667C39.7133 10.2312 36.7817 13.1798 36.7817 16.7391C36.7817 21.8878 43.4702 25.8579 43.4702 25.8579C43.4702 25.8579 50.1623 21.8878 50.1623 16.9783Z" fill="#EE4637"/>
<path d="M45.913 23.8655C45.3856 24.2797 44.7353 24.5035 44.0664 24.5012C43.3975 24.4989 42.7488 24.2705 42.2242 23.8528C40.2447 22.2752 37.3817 19.4108 37.3817 16.0423C37.3866 14.612 37.8566 13.2228 38.7199 12.0867C37.5327 13.2934 36.7817 14.938 36.7817 16.7391C36.7817 21.8878 43.4702 25.8579 43.4702 25.8579C43.4702 25.8579 46.1978 24.2395 48.1704 21.7915C47.4741 22.5424 46.7193 23.2359 45.913 23.8655V23.8655Z" fill="#CD3C27"/>
<path d="M43.1521 10.0667C41.9464 10.1292 40.7806 10.5224 39.7809 11.2038C40.5681 10.8217 41.4235 10.6024 42.2964 10.5588C46.137 10.3752 49.3066 13.54 49.3066 17.4705C49.3066 21.32 45.1926 24.5917 43.4159 25.8252C43.4507 25.8465 43.47 25.8581 43.47 25.8581C43.47 25.8581 50.1621 21.8878 50.1621 16.9783C50.1623 13.0479 46.9927 9.88292 43.1521 10.0667Z" fill="#F07378"/>
<path d="M43.4701 19.6251C42.9255 19.6252 42.3932 19.4626 41.9403 19.1581C41.4875 18.8536 41.1346 18.4208 40.9262 17.9144C40.7178 17.4079 40.6632 16.8507 40.7695 16.3131C40.8757 15.7755 41.1379 15.2817 41.523 14.8941C41.9081 14.5065 42.3987 14.2425 42.9328 14.1356C43.467 14.0286 44.0206 14.0835 44.5238 14.2933C45.0269 14.503 45.4569 14.8583 45.7595 15.314C46.0621 15.7698 46.2235 16.3056 46.2235 16.8537C46.2235 17.5887 45.9335 18.2937 45.4171 18.8134C44.9007 19.3331 44.2004 19.6251 43.4701 19.6251Z" fill="white"/>
<path d="M43.4701 19.6251C42.9255 19.6252 42.3932 19.4626 41.9403 19.1581C41.4875 18.8536 41.1346 18.4208 40.9262 17.9144C40.7178 17.4079 40.6632 16.8507 40.7695 16.3131C40.8757 15.7755 41.1379 15.2817 41.523 14.8941C41.9081 14.5065 42.3987 14.2425 42.9328 14.1356C43.467 14.0286 44.0206 14.0835 44.5238 14.2933C45.0269 14.503 45.4569 14.8583 45.7595 15.314C46.0621 15.7698 46.2235 16.3056 46.2235 16.8537C46.2235 17.5887 45.9335 18.2937 45.4171 18.8134C44.9007 19.3331 44.2004 19.6251 43.4701 19.6251Z" stroke="#363A5A" stroke-width="0.408" stroke-miterlimit="10"/>
<path d="M50.1623 16.9783C50.1623 13.0479 46.9927 9.88292 43.1521 10.0667C39.7133 10.2312 36.7817 13.1798 36.7817 16.7391C36.7817 21.8878 43.4702 25.8579 43.4702 25.8579C43.4702 25.8579 50.1623 21.8878 50.1623 16.9783Z" stroke="#363A5A" stroke-width="0.408" stroke-linecap="round" stroke-linejoin="round"/>
<path d="M28.4378 63.7563C28.4592 63.7577 28.4806 63.7547 28.5007 63.7473C28.5208 63.7399 28.5392 63.7284 28.5546 63.7134C28.57 63.6985 28.5822 63.6804 28.5902 63.6605C28.5983 63.6405 28.6021 63.6191 28.6014 63.5975C28.6028 63.577 28.5997 63.5564 28.5923 63.5372C28.585 63.518 28.5735 63.5007 28.5587 63.4864C28.544 63.4721 28.5263 63.4613 28.507 63.4546C28.4876 63.448 28.467 63.4457 28.4467 63.4479C28.4263 63.4459 28.4057 63.4481 28.3862 63.4544C28.3667 63.4607 28.3487 63.471 28.3333 63.4847C28.3179 63.4983 28.3056 63.515 28.2969 63.5337C28.2883 63.5525 28.2836 63.5728 28.2831 63.5934V63.5977C28.2826 63.6185 28.2863 63.6391 28.2938 63.6583C28.3014 63.6776 28.3127 63.6951 28.3272 63.7099C28.3416 63.7247 28.3588 63.7364 28.3778 63.7444C28.3968 63.7523 28.4172 63.7564 28.4378 63.7563Z" fill="#EE4637"/>
<path d="M36.2094 63.7563C36.2308 63.7577 36.2522 63.7547 36.2723 63.7473C36.2925 63.7399 36.3108 63.7284 36.3262 63.7134C36.3416 63.6985 36.3538 63.6804 36.3618 63.6605C36.3699 63.6405 36.3737 63.6191 36.373 63.5975C36.3744 63.577 36.3713 63.5564 36.3639 63.5372C36.3566 63.518 36.3451 63.5007 36.3303 63.4864C36.3156 63.4721 36.2979 63.4613 36.2786 63.4546C36.2592 63.448 36.2386 63.4457 36.2183 63.4479C36.1979 63.4459 36.1773 63.4481 36.1578 63.4544C36.1383 63.4607 36.1203 63.471 36.1049 63.4847C36.0896 63.4983 36.0772 63.515 36.0685 63.5337C36.0599 63.5525 36.0552 63.5728 36.0547 63.5934V63.5977C36.0542 63.6185 36.0579 63.6391 36.0655 63.6583C36.073 63.6776 36.0844 63.6951 36.0988 63.7099C36.1132 63.7247 36.1304 63.7364 36.1494 63.7444C36.1685 63.7523 36.1889 63.7564 36.2094 63.7563Z" fill="#EE4637"/>
<path d="M63.4277 65.4795C63.4277 65.4556 63.4371 65.4326 63.4539 65.4157C63.4708 65.3987 63.4936 65.3892 63.5174 65.3892C63.5412 65.3892 63.564 65.3987 63.5808 65.4157C63.5977 65.4326 63.6071 65.4556 63.6071 65.4795C63.6071 65.5035 63.5977 65.5264 63.5808 65.5434C63.564 65.5603 63.5412 65.5698 63.5174 65.5698C63.4936 65.5698 63.4708 65.5603 63.4539 65.5434C63.4371 65.5264 63.4277 65.5035 63.4277 65.4795V65.4795Z" fill="#EE4637"/>
</g>
<defs>
<clipPath id="clip0">
<rect width="67.7269" height="68" fill="white"/>
</clipPath>
</defs>
</svg>
