<svg width="26" height="48" viewBox="0 0 26 48" fill="none" xmlns="http://www.w3.org/2000/svg">
<g clip-path="url(#clip0)">
<path d="M23.3547 47.5593H2.58096C1.36916 47.5593 0.377686 46.5679 0.377686 45.3561V2.5495C0.377686 1.3377 1.36916 0.346222 2.58096 0.346222H23.3547C24.5665 0.346222 25.558 1.3377 25.558 2.5495V45.3561C25.558 46.5679 24.5665 47.5593 23.3547 47.5593Z" fill="#848484"/>
<path opacity="0.28" d="M23.3547 0.346222H22.0328C23.2446 0.346222 24.2361 1.3377 24.2361 2.5495V45.3561C24.2361 46.5679 23.2446 47.5593 22.0328 47.5593H23.3705C24.5823 47.5593 25.5738 46.5679 25.5738 45.3561V2.5495C25.558 1.32196 24.5666 0.346222 23.3547 0.346222Z" fill="#848484"/>
<path opacity="0.48" d="M1.68392 45.3561V2.5495C1.68392 1.3377 2.67539 0.346222 3.8872 0.346222H2.58096C1.36916 0.346222 0.377686 1.3377 0.377686 2.5495V45.3561C0.377686 46.5679 1.36916 47.5593 2.58096 47.5593H3.8872C2.67539 47.5593 1.68392 46.5679 1.68392 45.3561Z" fill="#848484"/>
<path d="M23.3547 47.5593H2.58096C1.36916 47.5593 0.377686 46.5679 0.377686 45.3561V2.5495C0.377686 1.3377 1.36916 0.346222 2.58096 0.346222H23.3547C24.5665 0.346222 25.558 1.3377 25.558 2.5495V45.3561C25.558 46.5679 24.5665 47.5593 23.3547 47.5593Z" stroke="#444E59" stroke-width="0.629508" stroke-miterlimit="10" stroke-linecap="round" stroke-linejoin="round"/>
<path d="M25.561 41.4984L25.561 6.24597L0.380711 6.24597L0.380711 41.4984L25.561 41.4984Z" fill="#E9FBFF"/>
<path d="M25.561 41.4984L25.561 6.24597L0.380711 6.24597L0.380711 41.4984L25.561 41.4984Z" stroke="#444E59" stroke-width="0.629508" stroke-miterlimit="10" stroke-linecap="round" stroke-linejoin="round"/>
<path d="M16.4302 3.49377H17.5318" stroke="#444E59" stroke-width="0.786885" stroke-miterlimit="10" stroke-linecap="round" stroke-linejoin="round"/>
<path d="M8.40393 3.49377H14.699" stroke="#444E59" stroke-width="0.786885" stroke-miterlimit="10" stroke-linecap="round" stroke-linejoin="round"/>
<path opacity="0.29" d="M12.9678 45.8911C13.9239 45.8911 14.699 45.1161 14.699 44.16C14.699 43.2039 13.9239 42.4288 12.9678 42.4288C12.0118 42.4288 11.2367 43.2039 11.2367 44.16C11.2367 45.1161 12.0118 45.8911 12.9678 45.8911Z" fill="#848484"/>
<path d="M12.9678 45.4819C13.6979 45.4819 14.2898 44.8901 14.2898 44.16C14.2898 43.4299 13.6979 42.838 12.9678 42.838C12.2377 42.838 11.6459 43.4299 11.6459 44.16C11.6459 44.8901 12.2377 45.4819 12.9678 45.4819Z" fill="#444E59"/>
<g opacity="0.3">
<g opacity="0.3">
<g opacity="0.3">
<path opacity="0.3" d="M7.22358 37.2826H4.70555C4.01309 37.2826 3.44653 36.7161 3.44653 36.0236V33.5056C3.44653 32.8131 4.01309 32.2466 4.70555 32.2466H7.22358C7.91604 32.2466 8.4826 32.8131 8.4826 33.5056V36.0236C8.4826 36.7161 7.91604 37.2826 7.22358 37.2826Z" stroke="#444E59" stroke-width="0.314754" stroke-linecap="round" stroke-linejoin="round" stroke-dasharray="0.64 0.64"/>
</g>
<g opacity="0.3">
<path opacity="0.3" d="M21.1514 37.2826H18.6334C17.941 37.2826 17.3744 36.7161 17.3744 36.0236V33.5056C17.3744 32.8131 17.941 32.2466 18.6334 32.2466H21.1514C21.8439 32.2466 22.4105 32.8131 22.4105 33.5056V36.0236C22.4105 36.7161 21.8439 37.2826 21.1514 37.2826Z" stroke="#444E59" stroke-width="0.314754" stroke-linecap="round" stroke-linejoin="round" stroke-dasharray="0.64 0.64"/>
</g>
<g opacity="0.3">
<path opacity="0.3" d="M14.2269 37.2826H11.7088C11.0164 37.2826 10.4498 36.7161 10.4498 36.0236V33.5056C10.4498 32.8131 11.0164 32.2466 11.7088 32.2466H14.2269C14.9193 32.2466 15.4859 32.8131 15.4859 33.5056V36.0236C15.4859 36.7161 14.9193 37.2826 14.2269 37.2826Z" stroke="#444E59" stroke-width="0.314754" stroke-linecap="round" stroke-linejoin="round" stroke-dasharray="0.64 0.64"/>
</g>
</g>
<g opacity="0.3">
<g opacity="0.3">
<path opacity="0.3" d="M7.22358 29.7285H4.70555C4.01309 29.7285 3.44653 29.162 3.44653 28.4695V25.9515C3.44653 25.259 4.01309 24.6925 4.70555 24.6925H7.22358C7.91604 24.6925 8.4826 25.259 8.4826 25.9515V28.4695C8.4826 29.162 7.91604 29.7285 7.22358 29.7285Z" stroke="#444E59" stroke-width="0.314754" stroke-linecap="round" stroke-linejoin="round" stroke-dasharray="0.64 0.64"/>
</g>
<g opacity="0.3">
<path opacity="0.3" d="M21.1514 29.7285H18.6334C17.941 29.7285 17.3744 29.162 17.3744 28.4695V25.9515C17.3744 25.259 17.941 24.6925 18.6334 24.6925H21.1514C21.8439 24.6925 22.4105 25.259 22.4105 25.9515V28.4695C22.4105 29.162 21.8439 29.7285 21.1514 29.7285Z" stroke="#444E59" stroke-width="0.314754" stroke-linecap="round" stroke-linejoin="round" stroke-dasharray="0.64 0.64"/>
</g>
<g opacity="0.3">
<path opacity="0.3" d="M14.2269 29.7285H11.7088C11.0164 29.7285 10.4498 29.162 10.4498 28.4695V25.9515C10.4498 25.259 11.0164 24.6925 11.7088 24.6925H14.2269C14.9193 24.6925 15.4859 25.259 15.4859 25.9515V28.4695C15.4859 29.162 14.9193 29.7285 14.2269 29.7285Z" stroke="#444E59" stroke-width="0.314754" stroke-linecap="round" stroke-linejoin="round" stroke-dasharray="0.64 0.64"/>
</g>
</g>
<g opacity="0.3">
<g opacity="0.3">
<path opacity="0.3" d="M7.22358 22.1744H4.70555C4.01309 22.1744 3.44653 21.6079 3.44653 20.9154V18.3974C3.44653 17.7049 4.01309 17.1384 4.70555 17.1384H7.22358C7.91604 17.1384 8.4826 17.7049 8.4826 18.3974V20.9154C8.4826 21.6079 7.91604 22.1744 7.22358 22.1744Z" stroke="#444E59" stroke-width="0.314754" stroke-linecap="round" stroke-linejoin="round" stroke-dasharray="0.64 0.64"/>
</g>
<g opacity="0.3">
<path opacity="0.3" d="M21.1514 22.1744H18.6334C17.941 22.1744 17.3744 21.6079 17.3744 20.9154V18.3974C17.3744 17.7049 17.941 17.1384 18.6334 17.1384H21.1514C21.8439 17.1384 22.4105 17.7049 22.4105 18.3974V20.9154C22.4105 21.6079 21.8439 22.1744 21.1514 22.1744Z" stroke="#444E59" stroke-width="0.314754" stroke-linecap="round" stroke-linejoin="round" stroke-dasharray="0.64 0.64"/>
</g>
<g opacity="0.3">
<path opacity="0.3" d="M14.2269 22.1744H11.7088C11.0164 22.1744 10.4498 21.6079 10.4498 20.9154V18.3974C10.4498 17.7049 11.0164 17.1384 11.7088 17.1384H14.2269C14.9193 17.1384 15.4859 17.7049 15.4859 18.3974V20.9154C15.4859 21.6079 14.9193 22.1744 14.2269 22.1744Z" stroke="#444E59" stroke-width="0.314754" stroke-linecap="round" stroke-linejoin="round" stroke-dasharray="0.64 0.64"/>
</g>
</g>
<g opacity="0.3">
<g opacity="0.3">
<path opacity="0.3" d="M7.22358 14.6203H4.70555C4.01309 14.6203 3.44653 14.0538 3.44653 13.3613V10.8433C3.44653 10.1508 4.01309 9.58426 4.70555 9.58426H7.22358C7.91604 9.58426 8.4826 10.1508 8.4826 10.8433V13.3613C8.4826 14.0538 7.91604 14.6203 7.22358 14.6203Z" stroke="#444E59" stroke-width="0.314754" stroke-linecap="round" stroke-linejoin="round" stroke-dasharray="0.64 0.64"/>
</g>
<g opacity="0.3">
<path opacity="0.3" d="M21.1514 14.6203H18.6334C17.941 14.6203 17.3744 14.0538 17.3744 13.3613V10.8433C17.3744 10.1508 17.941 9.58426 18.6334 9.58426H21.1514C21.8439 9.58426 22.4105 10.1508 22.4105 10.8433V13.3613C22.4105 14.0538 21.8439 14.6203 21.1514 14.6203Z" stroke="#444E59" stroke-width="0.314754" stroke-linecap="round" stroke-linejoin="round" stroke-dasharray="0.64 0.64"/>
</g>
<g opacity="0.3">
<path opacity="0.3" d="M14.2269 14.6203H11.7088C11.0164 14.6203 10.4498 14.0538 10.4498 13.3613V10.8433C10.4498 10.1508 11.0164 9.58426 11.7088 9.58426H14.2269C14.9193 9.58426 15.4859 10.1508 15.4859 10.8433V13.3613C15.4859 14.0538 14.9193 14.6203 14.2269 14.6203Z" stroke="#444E59" stroke-width="0.314754" stroke-linecap="round" stroke-linejoin="round" stroke-dasharray="0.64 0.64"/>
</g>
</g>
</g>
</g>
<defs>
<clipPath id="clip0">
<rect width="25.9672" height="48" fill="white"/>
</clipPath>
</defs>
</svg>
