<svg width="642" height="317" viewBox="0 0 642 317" fill="none" xmlns="http://www.w3.org/2000/svg">
<rect width="642" height="317" fill="#E5E5E5"/>
<path d="M641.192 3.07999H0.639984V316.68H641.192V3.07999Z" fill="#333333"/>
<path d="M632.658 316.974H9.87679C4.85679 316.974 0.84079 313.054 0.84079 308.154C0.84079 303.254 4.85679 299.334 9.87679 299.334H632.658C637.678 299.334 641.694 303.254 641.694 308.154C641.694 313.054 637.678 316.974 632.658 316.974Z" fill="#C9C9C9"/>
<path d="M127.044 225.834C117.405 225.834 109.674 218.19 109.674 208.88C109.674 199.57 117.506 191.926 127.044 191.926H225.436V225.932H127.044V225.834Z" fill="#CECECE"/>
<path d="M231.158 231.714H127.044C114.092 231.714 103.65 221.424 103.65 208.88C103.65 196.238 114.192 186.046 127.044 186.046H231.158V231.714V231.714Z" fill="white"/>
<path d="M120.618 203.588H225.436" stroke="#1F3969" stroke-width="4" stroke-miterlimit="10" stroke-linecap="round" stroke-linejoin="round"/>
<path d="M120.618 213.976H225.436" stroke="#1F3969" stroke-width="4" stroke-miterlimit="10" stroke-linecap="round" stroke-linejoin="round"/>
<path d="M127.044 225.834C117.405 225.834 109.674 218.19 109.674 208.88C109.674 199.57 117.506 191.926 127.044 191.926H225.436V225.932H127.044V225.834Z" stroke="#1F3969" stroke-width="4" stroke-miterlimit="10" stroke-linecap="round" stroke-linejoin="round"/>
<path d="M127.044 225.834C117.405 225.834 109.674 218.19 109.674 208.88C109.674 199.57 117.506 191.926 127.044 191.926H227.142L231.158 186.046H127.044C114.092 186.046 103.65 196.336 103.65 208.88C103.65 221.522 114.192 231.714 127.044 231.714H231.158L227.142 225.834H127.044Z" fill="#FF3E3E"/>
<path d="M127.044 225.834C117.405 225.834 109.674 218.19 109.674 208.88C109.674 199.57 117.506 191.926 127.044 191.926H227.142L231.158 186.046H127.044C114.092 186.046 103.65 196.336 103.65 208.88C103.65 221.522 114.192 231.714 127.044 231.714H231.158L227.142 225.834H127.044Z" stroke="#1F3969" stroke-width="4" stroke-miterlimit="10" stroke-linecap="round" stroke-linejoin="round"/>
<path opacity="0.28" d="M208.769 185.948H190.296V231.714H208.769V185.948Z" fill="#1F3969" stroke="#1F3969" stroke-width="4" stroke-miterlimit="10" stroke-linecap="round" stroke-linejoin="round"/>
<path d="M220.416 269.444H29.756C26.0412 269.444 22.9288 266.504 22.9288 262.78V238.28C22.9288 234.654 25.9408 231.616 29.756 231.616H220.416C224.13 231.616 227.243 234.556 227.243 238.28V262.78C227.243 266.504 224.231 269.444 220.416 269.444Z" fill="#50B56F"/>
<path d="M220.416 269.444H29.756C26.0412 269.444 22.9288 266.504 22.9288 262.78V238.28C22.9288 234.654 25.9408 231.616 29.756 231.616H220.416C224.13 231.616 227.243 234.556 227.243 238.28V262.78C227.243 266.504 224.231 269.444 220.416 269.444Z" stroke="#1F3969" stroke-width="4" stroke-miterlimit="10" stroke-linecap="round" stroke-linejoin="round"/>
<path opacity="0.28" d="M220.416 231.714H190.296V246.414C190.296 255.626 197.926 263.172 207.464 263.172H227.243C227.243 263.074 227.243 262.976 227.243 262.878V238.378C227.243 234.654 224.231 231.714 220.416 231.714Z" fill="#1F3969" stroke="#1F3969" stroke-width="4" stroke-miterlimit="10" stroke-linecap="round" stroke-linejoin="round"/>
<path d="M274.13 277.088H53.2496C54.5548 280.224 55.2576 284.144 55.2576 288.26C55.2576 292.376 54.5548 296.198 53.2496 299.432H274.029C272.724 296.296 272.021 292.376 272.021 288.26C272.122 284.046 272.824 280.224 274.13 277.088Z" fill="#CECECE"/>
<path d="M280.154 271.11H47.326V276.99H280.154V271.11Z" fill="#5F5AFF"/>
<path d="M280.154 271.11H47.326V276.99H280.154V271.11Z" stroke="#1F3969" stroke-width="4" stroke-miterlimit="10" stroke-linecap="round" stroke-linejoin="round"/>
<path d="M280.154 299.334H47.326V305.214H280.154V299.334Z" fill="#F6F9FD"/>
<path d="M280.154 299.334H47.326V305.214H280.154V299.334Z" fill="#5F5AFF"/>
<path d="M280.154 299.334H47.326V305.214H280.154V299.334Z" stroke="#1F3969" stroke-width="4" stroke-miterlimit="10" stroke-linecap="round" stroke-linejoin="round"/>
<path d="M395.814 284.34L392.802 251.314H343.205L340.193 284.34C339.49 291.984 334.771 299.334 327.342 305.214V305.312H408.666V305.214C401.236 299.334 396.517 291.984 395.814 284.34Z" fill="#BFCFE2"/>
<path opacity="0.28" d="M343.205 251.314L341.398 271.11H394.61L392.802 251.314H343.205Z" fill="#1F3969" stroke="#1F3969" stroke-width="4" stroke-miterlimit="10" stroke-linecap="round" stroke-linejoin="round"/>
<path d="M395.814 284.34L392.802 251.314H343.205L340.193 284.34C339.49 291.984 334.771 299.334 327.342 305.214V305.312H408.666V305.214C401.236 299.334 396.517 291.984 395.814 284.34Z" stroke="#1F3969" stroke-width="4" stroke-miterlimit="10" stroke-linecap="round" stroke-linejoin="round"/>
<path d="M526.636 256.214H209.372C202.745 256.214 197.324 250.922 197.324 244.454V42.574C197.324 36.106 202.745 30.814 209.372 30.814H526.636C533.262 30.814 538.684 36.106 538.684 42.574V244.454C538.684 251.02 533.262 256.214 526.636 256.214Z" fill="white"/>
<path d="M526.636 256.214H209.372C202.745 256.214 197.324 250.922 197.324 244.454V42.574C197.324 36.106 202.745 30.814 209.372 30.814H526.636C533.262 30.814 538.684 36.106 538.684 42.574V244.454C538.684 251.02 533.262 256.214 526.636 256.214Z" fill="#BFCFE2"/>
<path d="M526.636 256.214H209.372C202.745 256.214 197.324 250.922 197.324 244.454V42.574C197.324 36.106 202.745 30.814 209.372 30.814H526.636C533.262 30.814 538.684 36.106 538.684 42.574V244.454C538.684 251.02 533.262 256.214 526.636 256.214Z" stroke="#1F3969" stroke-width="4" stroke-miterlimit="10" stroke-linecap="round" stroke-linejoin="round"/>
<path d="M521.671 218.61V47.5015L214.447 47.5015L214.447 218.61L521.671 218.61Z" fill="#F6F9FD"/>
<path opacity="0.28" d="M225.436 30.814V166.642C225.436 170.954 229.05 174.482 233.468 174.482H423.324C427.742 174.482 431.356 170.954 431.356 166.642V30.814H225.436Z" fill="#1F3969" stroke="#1F3969" stroke-width="4" stroke-miterlimit="10" stroke-linecap="round" stroke-linejoin="round"/>
<path d="M521.671 218.61V47.5015L214.447 47.5015L214.447 218.61L521.671 218.61Z" stroke="#1F3969" stroke-width="4" stroke-miterlimit="10" stroke-linecap="round" stroke-linejoin="round"/>
<path d="M354.55 237.3H381.558" stroke="#1F3969" stroke-width="4" stroke-miterlimit="10" stroke-linecap="round" stroke-linejoin="round"/>
<path d="M432.36 163.702H242.504C238.086 163.702 234.472 160.174 234.472 155.862V10.626C234.472 6.31401 238.086 2.78601 242.504 2.78601H432.36C436.778 2.78601 440.392 6.31401 440.392 10.626V155.96C440.392 160.272 436.778 163.702 432.36 163.702Z" fill="#2D425E"/>
<path d="M440.392 21.798H234.472V10.528C234.472 6.21602 238.086 2.68802 242.504 2.68802H432.36C436.778 2.68802 440.392 6.21602 440.392 10.528V21.798Z" stroke="#1F3969" stroke-width="4" stroke-miterlimit="10" stroke-linecap="round" stroke-linejoin="round"/>
<path d="M440.392 25.522H234.472V10.528C234.472 6.21602 238.086 2.68802 242.504 2.68802H432.36C436.778 2.68802 440.392 6.21602 440.392 10.528V25.522Z" fill="#D0DDF0"/>
<path d="M440.392 25.522H234.472V10.528C234.472 6.21602 238.086 2.68802 242.504 2.68802H432.36C436.778 2.68802 440.392 6.21602 440.392 10.528V25.522Z" stroke="#1F3969" stroke-width="4" stroke-miterlimit="10" stroke-linecap="round" stroke-linejoin="round"/>
<path d="M440.392 25.522H234.472V10.528C234.472 6.21602 238.086 2.68802 242.504 2.68802H432.36C436.778 2.68802 440.392 6.21602 440.392 10.528V25.522Z" stroke="#1F3969" stroke-width="4" stroke-miterlimit="10" stroke-linecap="round" stroke-linejoin="round"/>
<path d="M432.36 163.702H242.504C238.086 163.702 234.472 160.174 234.472 155.862V10.626C234.472 6.31401 238.086 2.78601 242.504 2.78601H432.36C436.778 2.78601 440.392 6.31401 440.392 10.626V155.96C440.392 160.272 436.778 163.702 432.36 163.702Z" stroke="#1F3969" stroke-width="4" stroke-miterlimit="10" stroke-linecap="round" stroke-linejoin="round"/>
<path opacity="0.28" d="M531.455 198.394H414.991C410.573 198.394 406.959 194.866 406.959 190.554V70.112C406.959 65.8 410.573 62.272 414.991 62.272H531.455C535.872 62.272 539.487 65.8 539.487 70.112V190.554C539.487 194.964 535.872 198.394 531.455 198.394Z" fill="#1F3969" stroke="#1F3969" stroke-width="4" stroke-miterlimit="10" stroke-linecap="round" stroke-linejoin="round"/>
<path d="M539.487 191.534H423.023C418.605 191.534 414.991 188.006 414.991 183.694V63.252C414.991 58.94 418.605 55.412 423.023 55.412H539.487C543.904 55.412 547.519 58.94 547.519 63.252V183.694C547.519 188.104 543.904 191.534 539.487 191.534Z" fill="#2AA1FF"/>
<path d="M539.487 191.534H423.023C418.605 191.534 414.991 188.006 414.991 183.694V63.252C414.991 58.94 418.605 55.412 423.023 55.412H539.487C543.904 55.412 547.519 58.94 547.519 63.252V183.694C547.519 188.104 543.904 191.534 539.487 191.534Z" stroke="#1F3969" stroke-width="4" stroke-miterlimit="10" stroke-linecap="round" stroke-linejoin="round"/>
<path opacity="0.34" d="M522.118 92.75H440.191C437.28 92.75 434.97 90.496 434.97 87.654V80.01C434.97 77.168 437.28 74.914 440.191 74.914H522.118C525.029 74.914 527.338 77.168 527.338 80.01V87.654C527.338 90.496 525.029 92.75 522.118 92.75Z" stroke="white" stroke-width="2" stroke-miterlimit="10" stroke-linecap="round" stroke-linejoin="round"/>
<g opacity="0.34">
<path opacity="0.34" d="M486.174 121.464H440.392C437.48 121.464 435.171 119.21 435.171 116.368V108.724C435.171 105.882 437.48 103.628 440.392 103.628H486.174C489.086 103.628 491.395 105.882 491.395 108.724V116.368C491.295 119.21 488.986 121.464 486.174 121.464Z" stroke="white" stroke-width="2" stroke-miterlimit="10" stroke-linecap="round" stroke-linejoin="round"/>
<path opacity="0.34" d="M522.218 121.464H504.447C501.536 121.464 499.226 119.21 499.226 116.368V108.724C499.226 105.882 501.536 103.628 504.447 103.628H522.218C525.13 103.628 527.439 105.882 527.439 108.724V116.368C527.439 119.21 525.13 121.464 522.218 121.464Z" stroke="white" stroke-width="2" stroke-miterlimit="10" stroke-linecap="round" stroke-linejoin="round"/>
</g>
<path d="M435.071 151.256H527.338" stroke="white" stroke-width="2" stroke-miterlimit="10" stroke-linecap="round" stroke-linejoin="round"/>
<path d="M435.071 161.84H527.338" stroke="white" stroke-width="2" stroke-miterlimit="10" stroke-linecap="round" stroke-linejoin="round"/>
<path d="M435.071 172.424H491.295" stroke="white" stroke-width="2" stroke-miterlimit="10" stroke-linecap="round" stroke-linejoin="round"/>
<path d="M254.652 18.074C256.87 18.074 258.668 16.319 258.668 14.154C258.668 11.989 256.87 10.234 254.652 10.234C252.434 10.234 250.636 11.989 250.636 14.154C250.636 16.319 252.434 18.074 254.652 18.074Z" fill="#1F3969"/>
<path d="M268.608 18.074C270.826 18.074 272.624 16.319 272.624 14.154C272.624 11.989 270.826 10.234 268.608 10.234C266.39 10.234 264.592 11.989 264.592 14.154C264.592 16.319 266.39 18.074 268.608 18.074Z" fill="#1F3969"/>
<path d="M282.563 18.074C284.781 18.074 286.579 16.319 286.579 14.154C286.579 11.989 284.781 10.234 282.563 10.234C280.345 10.234 278.547 11.989 278.547 14.154C278.547 16.319 280.345 18.074 282.563 18.074Z" fill="#1F3969"/>
<path d="M352.743 43.652H365.795" stroke="white" stroke-width="4" stroke-miterlimit="10" stroke-linecap="round" stroke-linejoin="round"/>
<path d="M286.579 43.652H343.104" stroke="#7BFFA0" stroke-width="4" stroke-miterlimit="10" stroke-linecap="round" stroke-linejoin="round"/>
<path d="M258.668 43.652H278.547" stroke="#9169FF" stroke-width="4" stroke-miterlimit="10" stroke-linecap="round" stroke-linejoin="round"/>
<path d="M284.571 140.182H327.743" stroke="#9169FF" stroke-width="4" stroke-miterlimit="10" stroke-linecap="round" stroke-linejoin="round"/>
<path d="M258.668 140.182H272.624" stroke="#7BFFA0" stroke-width="4" stroke-miterlimit="10" stroke-linecap="round" stroke-linejoin="round"/>
<path d="M343.104 55.706H351.237" stroke="white" stroke-width="4" stroke-miterlimit="10" stroke-linecap="round" stroke-linejoin="round"/>
<path d="M306.157 55.706H333.466" stroke="#9169FF" stroke-width="4" stroke-miterlimit="10" stroke-linecap="round" stroke-linejoin="round"/>
<path d="M268.608 55.706H296.418" stroke="#FFC47D" stroke-width="4" stroke-miterlimit="10" stroke-linecap="round" stroke-linejoin="round"/>
<path d="M311.679 67.76H335.675" stroke="white" stroke-width="4" stroke-miterlimit="10" stroke-linecap="round" stroke-linejoin="round"/>
<path d="M281.559 67.76H304.149" stroke="#FF5757" stroke-width="4" stroke-miterlimit="10" stroke-linecap="round" stroke-linejoin="round"/>
<path d="M314.892 79.814H319.812" stroke="white" stroke-width="4" stroke-miterlimit="10" stroke-linecap="round" stroke-linejoin="round"/>
<path d="M295.013 79.814H306.157" stroke="#9169FF" stroke-width="4" stroke-miterlimit="10" stroke-linecap="round" stroke-linejoin="round"/>
<path d="M268.608 79.814H286.579" stroke="#7BFFA0" stroke-width="4" stroke-miterlimit="10" stroke-linecap="round" stroke-linejoin="round"/>
<path d="M307.161 91.966H339.189" stroke="#FFC47D" stroke-width="4" stroke-miterlimit="10" stroke-linecap="round" stroke-linejoin="round"/>
<path d="M268.608 91.966H297.322" stroke="#FF5757" stroke-width="4" stroke-miterlimit="10" stroke-linecap="round" stroke-linejoin="round"/>
<path d="M344.209 104.02H361.578" stroke="#9169FF" stroke-width="4" stroke-miterlimit="10" stroke-linecap="round" stroke-linejoin="round"/>
<path d="M307.161 104.02H334.972" stroke="#FF5757" stroke-width="4" stroke-miterlimit="10" stroke-linecap="round" stroke-linejoin="round"/>
<path d="M281.559 104.02H297.322" stroke="#7BFFA0" stroke-width="4" stroke-miterlimit="10" stroke-linecap="round" stroke-linejoin="round"/>
<path d="M319.812 116.074H334.972" stroke="white" stroke-width="4" stroke-miterlimit="10" stroke-linecap="round" stroke-linejoin="round"/>
<path d="M281.559 116.074H309.37" stroke="#9169FF" stroke-width="4" stroke-miterlimit="10" stroke-linecap="round" stroke-linejoin="round"/>
<path d="M359.269 128.128H376.638" stroke="white" stroke-width="4" stroke-miterlimit="10" stroke-linecap="round" stroke-linejoin="round"/>
<path d="M306.157 128.128H349.831" stroke="#FFC47D" stroke-width="4" stroke-miterlimit="10" stroke-linecap="round" stroke-linejoin="round"/>
<path d="M268.608 128.128H296.418" stroke="white" stroke-width="4" stroke-miterlimit="10" stroke-linecap="round" stroke-linejoin="round"/>
<path d="M55.7596 283.85H272.122" stroke="#1F3969" stroke-width="4" stroke-miterlimit="10" stroke-linecap="round" stroke-linejoin="round"/>
<path d="M55.7596 291.69H272.122" stroke="#1F3969" stroke-width="4" stroke-miterlimit="10" stroke-linecap="round" stroke-linejoin="round"/>
<path d="M274.13 277.088H53.2496C54.5548 280.224 55.2576 284.144 55.2576 288.26C55.2576 292.376 54.5548 296.198 53.2496 299.432H274.029C272.724 296.296 272.021 292.376 272.021 288.26C272.122 284.046 272.824 280.224 274.13 277.088Z" stroke="#1F3969" stroke-width="4" stroke-miterlimit="10" stroke-linecap="round" stroke-linejoin="round"/>
<path d="M571.263 197.19L561.49 198.309L569.989 268.974L579.762 267.854L571.263 197.19Z" fill="#FFA364"/>
<path d="M571.276 197.265L561.504 198.385L562.37 205.587L572.142 204.467L571.276 197.265Z" fill="#2AA1FF"/>
<path d="M571.276 197.265L561.504 198.385L562.37 205.587L572.142 204.467L571.276 197.265Z" stroke="#1F3969" stroke-width="4" stroke-miterlimit="10" stroke-linecap="round" stroke-linejoin="round"/>
<path d="M571.263 197.19L561.49 198.309L569.989 268.974L579.762 267.854L571.263 197.19Z" stroke="#1F3969" stroke-width="4" stroke-miterlimit="10" stroke-linecap="round" stroke-linejoin="round"/>
<path d="M598.059 211.664L588.278 210.626L580.398 281.354L590.179 282.392L598.059 211.664Z" fill="#FF5252"/>
<path d="M598.059 211.664L588.278 210.626L580.398 281.354L590.179 282.392L598.059 211.664Z" stroke="#1F3969" stroke-width="4" stroke-miterlimit="10" stroke-linecap="round" stroke-linejoin="round"/>
<path d="M598.131 211.681L588.35 210.643L587.547 217.852L597.328 218.89L598.131 211.681Z" fill="#2D425E"/>
<path d="M598.131 211.681L588.35 210.643L587.547 217.852L597.328 218.89L598.131 211.681Z" stroke="#1F3969" stroke-width="4" stroke-miterlimit="10" stroke-linecap="round" stroke-linejoin="round"/>
<path d="M604.144 305.508H564.687L558.262 246.512H610.57L604.144 305.508Z" fill="#6567C3"/>
<path d="M558.262 246.512L558.362 247.59H598.221L591.896 305.508H604.144L610.57 246.512H558.262Z" fill="#6567C3"/>
<path d="M604.144 305.508H564.687L558.262 246.512H610.57L604.144 305.508Z" stroke="#1F3969" stroke-width="4" stroke-miterlimit="10" stroke-linecap="round" stroke-linejoin="round"/>
</svg>
